<?xml version="1.0" standalone="no"?><!DOCTYPE svg PUBLIC "-//W3C//DTD SVG 1.1//EN" "http://www.w3.org/Graphics/SVG/1.1/DTD/svg11.dtd"><svg t="1549121316951" class="icon" style="" viewBox="0 0 1024 1024" version="1.1" xmlns="http://www.w3.org/2000/svg" p-id="4999" xmlns:xlink="http://www.w3.org/1999/xlink" width="200" height="200"><defs><style type="text/css"></style></defs><path d="M1022.2 394c-4.2-13-15.5-22.5-29.1-24.5L683 324.4l-138.7-281c-6.1-12.3-18.6-20.1-32.3-20.1s-26.2 7.8-32.3 20.1L341 324.4 30.8 369.5C17.3 371.5 6 381 1.8 394c-4.2 13-0.7 27.3 9.1 36.9l224.4 218.8-53 308.9c-2.3 13.5 3.2 27.2 14.3 35.2 11.1 8.1 25.8 9.1 37.9 2.7L512 850.7l277.4 145.9c5.3 2.8 11 4.1 16.7 4.1 7.5 0 14.9-2.3 21.2-6.9 11.1-8.1 16.6-21.7 14.3-35.2l-53-308.9L1013 430.9c9.9-9.6 13.5-23.9 9.2-36.9z" p-id="5000" fill="#1b4b31"></path></svg>