<?xml version="1.0" standalone="no"?><!DOCTYPE svg PUBLIC "-//W3C//DTD SVG 1.1//EN" "http://www.w3.org/Graphics/SVG/1.1/DTD/svg11.dtd"><svg t="1549520388542" class="icon" style="" viewBox="0 0 1028 1024" version="1.1" xmlns="http://www.w3.org/2000/svg" p-id="4507" xmlns:xlink="http://www.w3.org/1999/xlink" width="200.78125" height="200"><defs><style type="text/css"></style></defs><path d="M601.6 475.2c-24 0-44.8 19.2-44.8 44.8 0 24 19.2 44.8 44.8 44.8 24 0 44.8-19.2 44.8-44.8 0-24-20.8-44.8-44.8-44.8z" p-id="4508" fill="#1b4b31"></path><path d="M427.2 475.2c-24 0-44.8 19.2-44.8 44.8 0 24 19.2 44.8 44.8 44.8 24 0 44.8-19.2 44.8-44.8 0-24-20.8-44.8-44.8-44.8z" p-id="4509" fill="#1b4b31"></path><path d="M252.8 475.2c-24 0-44.8 19.2-44.8 44.8 0 24 19.2 44.8 44.8 44.8 25.6 0 44.8-19.2 44.8-44.8 0-24-20.8-44.8-44.8-44.8z" p-id="4510" fill="#1b4b31"></path><path d="M916.8 72c-209.6 0-420.8 0-630.4 0-43.2 0-78.4 35.2-78.4 78.4v25.6c0 11.2 9.6 19.2 20.8 19.2s19.2-8 19.2-19.2v-25.6c0-20.8 17.6-38.4 38.4-38.4h630.4c20.8 0 38.4 17.6 38.4 38.4v387.2c0 20.8-17.6 38.4-38.4 38.4h-25.6c-11.2 0-19.2 8-19.2 19.2s8 19.2 19.2 19.2h25.6c43.2 0 78.4-35.2 78.4-78.4 0-128 0-257.6 0-385.6 0-43.2-35.2-78.4-78.4-78.4z" p-id="4511" fill="#1b4b31"></path><path d="M742.4 249.6c-209.6 0-420.8 0-630.4 0-43.2 0-78.4 35.2-78.4 78.4 0 128 0 257.6 0 385.6 0 41.6 35.2 76.8 78.4 80h73.6c11.2 0 19.2 8 19.2 19.2v121.6c0 1.6 0 1.6 0 1.6 1.6 4.8 3.2 9.6 8 12.8 3.2 1.6 8 3.2 11.2 3.2s6.4 0 8-1.6c3.2-1.6 6.4-3.2 8-6.4l100.8-144c3.2-4.8 9.6-8 16-8h385.6c43.2 0 78.4-35.2 78.4-78.4 0-128 0-257.6 0-385.6 0-43.2-35.2-78.4-78.4-78.4zM780.8 712c0 20.8-17.6 38.4-38.4 38.4h-368v1.6h-27.2c-12.8 0-24 6.4-32 16l-72 102.4v-80c0-20.8-17.6-38.4-38.4-38.4h-92.8c-20.8 0-38.4-17.6-38.4-38.4v-387.2c0-20.8 17.6-38.4 38.4-38.4h630.4c20.8 0 38.4 17.6 38.4 38.4v385.6z" p-id="4512" fill="#1b4b31"></path></svg>