<?xml version="1.0" standalone="no"?><!DOCTYPE svg PUBLIC "-//W3C//DTD SVG 1.1//EN" "http://www.w3.org/Graphics/SVG/1.1/DTD/svg11.dtd"><svg t="1549121274584" class="icon" style="" viewBox="0 0 1024 1024" version="1.1" xmlns="http://www.w3.org/2000/svg" p-id="4179" xmlns:xlink="http://www.w3.org/1999/xlink" width="200" height="200"><defs><style type="text/css"></style></defs><path d="M448 768C271.556923 768 128 624.443077 128 448S271.556923 128 448 128 768 271.556923 768 448 624.443077 768 448 768m553.412923 97.595077l-176.324923-176.324923A445.321846 445.321846 0 0 0 896 448C896 200.566154 695.433846 0 448 0S0 200.566154 0 448 200.566154 896 448 896c88.950154 0 171.579077-26.249846 241.270154-70.912l176.265846 176.246154a32.019692 32.019692 0 0 0 45.252923 0l90.624-90.486154c12.406154-12.406154 12.406154-32.827077 0-45.252923" p-id="4180" fill="#1b4b31"></path></svg>